<svg id="esRPwJIfU3t1" xmlns="http://www.w3.org/2000/svg" xmlns:xlink="http://www.w3.org/1999/xlink" viewBox="0 0 500 500" shape-rendering="geometricPrecision" text-rendering="geometricPrecision"><g transform="matrix(1.305831 0 0 1.310925-97.831636-43.086568)"><g transform="translate(-43-56)"><rect width="167.75" height="301.71" rx="10.05" ry="10.05" transform="translate(253.58 116.89)" fill="#263238"/><path d="M415.67,127v281c-.002557,1.101433-.44603,2.155983-1.231411,2.928212s-1.84727,1.197831-2.948589,1.181788h-148.49c-1.000436.013896-1.963403-.380161-2.667103-1.091407s-1.087463-1.678362-1.062897-2.678593v-281.68c-.035161-.880699.281325-1.739234.879707-2.386387s1.429541-1.029802,2.310293-1.063613h37.13c1.064232.019713,2.011651.678958,2.4,1.67l1.53,3.78c.386615.985154,1.331772,1.637668,2.39,1.65h63.19c1.053382.000832,2.000618-.641227,2.39-1.62l1.54-3.81c.384739-.989477,1.328564-1.64897,2.39-1.67h36.58c2.053076.049087,3.686972,1.736407,3.67,3.79Z" fill="#ae93e1"/><path d="M407.57,123.21c-13.85,38.33-58.87,143.63-148.33,186.57v-183.12c-.035161-.880699.281325-1.739234.879707-2.386387s1.429541-1.029802,2.310293-1.063613h37.13c1.064232.019713,2.011651.678958,2.4,1.67l1.53,3.78c.386615.985154,1.331772,1.637668,2.39,1.65h63.22c1.053382.000832,2.000618-.641227,2.39-1.62l1.54-3.81c.384739-.989477,1.328564-1.64897,2.39-1.67Z" opacity="0.1" fill="#fff"/><path d="M415.67,261v147c-.002557,1.101433-.44603,2.155983-1.231411,2.928212s-1.84727,1.197831-2.948589,1.181788h-148.49c-1.000436.013896-1.963403-.380161-2.667103-1.091407s-1.087463-1.678362-1.062897-2.678593v-66.86c41.29-54.4,112.32-73.68,156.4-80.48Z" opacity="0.1" fill="#fff"/><path style="isolation:isolate" d="M337.43,123.58c0,.869594-.523831,1.653562-1.327231,1.986341s-1.728153.148834-2.343049-.466061-.79884-1.539649-.466061-2.343049s1.116747-1.327231,1.986341-1.327231c1.185137.005474,2.144526.964863,2.15,2.15Z" opacity="0.6" fill="#fff"/><path style="isolation:isolate" d="M341.77,123.58c-.060951.714061-.658343,1.262633-1.375,1.262633s-1.314049-.548572-1.375-1.262633c-.044321-.519235.207631-1.019154.651361-1.292418s1.003549-.273265,1.447278,0s.695682.773183.651361,1.292418Z" opacity="0.6" fill="#fff"/><rect width="151.91" height="257.76" rx="0" ry="0" transform="translate(260.71 141.19)" opacity="0.5" fill="#fff"/><rect width="143.67" height="37" rx="0" ry="0" transform="translate(264.82 171.84)" fill="#fff"/><rect width="143.67" height="37" rx="0" ry="0" transform="translate(264.82 210.86)" fill="#fff"/><rect width="143.67" height="22.15" rx="0" ry="0" transform="translate(264.82 146.66)" fill="#ae93e1"/><g opacity="0.5"><path d="M313.23,194.34l-1.65-2.22-1.65,2.22h-1.66l2.5-3.25-2.39-3.15h1.67l1.57,2.1l1.57-2.1h1.62l-2.4,3.13l2.51,3.27Z"/><path d="M321.71,193v1.32h-6.19v-1l3.34-3.17c.81-.78,1-1.27,1-1.73c0-.77-.53-1.22-1.56-1.22-.769883-.048111-1.515335.279889-2,.88l-1.09-.84c.783327-.942207,1.966578-1.457793,3.19-1.39c1.82,0,3,.92,3,2.41-.025774,1.051492-.539584,2.031056-1.39,2.65L317.75,193Z"/></g><path d="M378.64,190.83c.004044,2.707668-1.624438,5.150784-4.125225,6.188833s-5.380699.466317-7.295312-1.448296-2.486345-4.794524-1.448296-7.295312s3.481165-4.129269,6.188833-4.125225c3.686979.005507,6.674493,2.993021,6.68,6.68Z" fill="#ae93e1"/><rect width="1" height="7.47" rx="0" ry="0" transform="translate(371.46 187.1)" fill="#fff"/><rect width="7.47" height="1" rx="0" ry="0" transform="translate(368.22 190.33)" fill="#fff"/><path d="M398.65,190.83c0,3.689262-2.990738,6.68-6.68,6.68s-6.68-2.990738-6.68-6.68s2.990738-6.68,6.68-6.68c3.686979.005507,6.674493,2.993021,6.68,6.68Z" fill="#ae93e1"/><rect width="7.47" height="1" rx="0" ry="0" transform="translate(388.23 190.33)" fill="#fff"/><path d="M276.9,197c-.426451.149531-.832848.35105-1.21.6-.338623.917365-.258218,1.937046.22,2.79.5.39,5.87,1.31,8.67,1.1s5.55,0,8.56,0s8.73-.46,9.09-1.1c.376484-.832759.376484-1.787241,0-2.62-1.259918-1.01138-2.846203-1.527101-4.46-1.45-1.84.25-20.87.68-20.87.68Z" fill="#ae93e1"/><path style="isolation:isolate" d="M276.9,197c-.426451.149531-.832848.35105-1.21.6-.338623.917365-.258218,1.937046.22,2.79.5.39,5.87,1.31,8.67,1.1s5.55,0,8.56,0s8.73-.46,9.09-1.1c.376484-.832759.376484-1.787241,0-2.62-1.259918-1.01138-2.846203-1.527101-4.46-1.45-1.84.25-20.87.68-20.87.68Z" opacity="0.3" fill="#fff"/><path d="M276.66,195.19c-.09.54-.29,1.74,0,2c1.622181.743121,3.427836.990137,5.19.71c1.961941-.218179,3.937521-.288378,5.91-.21c3.32,0,4.7.14,5.38,0s1.59-.21,2.79-.28s2.9-.21,3.36-.21.71.32,1.31,0c.395758-.227466.802963-.434406,1.22-.62s-.05-.72-.27-.83-.35,0-.39-.24s0-.18-.14-.41-.42-.53-.42-.53Z" fill="#263238"/><path style="isolation:isolate" d="M276.66,195.19c-.09.54-.29,1.74,0,2c1.622181.743121,3.427836.990137,5.19.71c1.961941-.218179,3.937521-.288378,5.91-.21c3.32,0,4.7.14,5.38,0s1.59-.21,2.79-.28s2.9-.21,3.36-.21.71.32,1.31,0c.395758-.227466.802963-.434406,1.22-.62s-.05-.72-.27-.83-.35,0-.39-.24s0-.18-.14-.41-.42-.53-.42-.53Z" opacity="0.2" fill="#fff"/><path d="M286.24,195.58c1.046572.409058,2.16758.593053,3.29.54.822566-.050285,1.647434-.050285,2.47,0c.85.07.53-.3,1.49.2s.92,1,2.44.25s1.7-.84,2.33-.84c.471958.061771.951841.010355,1.4-.15.55-.21,2.16-.74,2.16-.74s.05-.74-1.33-.78-16,.43-16.41.78s2.16.74,2.16.74Z" fill="#ae93e1"/><path style="isolation:isolate" d="M286.24,195.58c1.046572.409058,2.16758.593053,3.29.54.822566-.050285,1.647434-.050285,2.47,0c.85.07.53-.3,1.49.2s.92,1,2.44.25s1.7-.84,2.33-.84c.471958.061771.951841.010355,1.4-.15.55-.21,2.16-.74,2.16-.74s.05-.74-1.33-.78-16,.43-16.41.78s2.16.74,2.16.74Z" opacity="0.2"/><path d="M278.11,194.06c0,0-2.34.36-2.41.78s.39.46.72.74c.205002.175548.368874.394045.48.64.500377-.369737,1.148891-.474095,1.74-.28.81.39,1.2.42,1.41.28s.68.19,1.38.08c.409574-.078841.830426-.078841,1.24,0c.46,0,1.13-.81,1.52-.74.759333-.149408,1.49567-.398216,2.19-.74Z" fill="#ae93e1"/><path d="M276.55,190.77c-.184863.510445-.184863,1.069555,0,1.58.158144.771984.158144,1.568016,0,2.34c1.261083-.249793,2.558917-.249793,3.82,0c1.91.43,2.33,1.19,4.17.77.859044-.321194,1.773636-.467392,2.69-.43c1.41,0,3.32-.6,5-.34s3.84-.26,3.9,0s3.32,0,3.32,0s1.55-.34,1.55-.68-.21-3.9-.21-3.9Z" fill="#263238"/><path d="M281.43,193.85c0,0,7.14-.28,8.1-.28s1.77.14,3.39.14c1.16288.115717,2.331593.162465,3.5.14c1.6-.14,3,0,3.22-.12-.673449.063975-1.341696.174236-2,.33-.608064.170315-1.239012.244544-1.87.22-.458122-.150474-.937822-.224793-1.42-.22-.1.07-1,0-1.2.26s-.28,1.3-.39,1.26c-.32083-.434067-.747816-.778412-1.24-1-.84-.34-2.17-.83-2.36-.52s-1.38.11-1.77.52c-.366432.328865-.822462.541215-1.31.61-.17.01-4.65-1.34-4.65-1.34Z" fill="#ae93e1"/><path d="M276.33,190.68c-.08.54-.28,1.73,0,2s2.33,1,5.2.7c1.958578-.218396,3.930851-.288596,5.9-.21c3.33,0,4.71.14,5.38,0c.924396-.14457,1.855633-.241366,2.79-.29c1.21-.07,2.9-.21,3.36-.21s.71.32,1.31,0c.394372-.232998.801699-.443339,1.22-.63s-.05-.72-.26-.82-.36,0-.39-.25s0-.18-.14-.41l-.43-.53Z" fill="#263238"/><path style="isolation:isolate" d="M276.33,190.68c-.08.54-.28,1.73,0,2s2.33,1,5.2.7c1.958578-.218396,3.930851-.288596,5.9-.21c3.33,0,4.71.14,5.38,0c.924396-.14457,1.855633-.241366,2.79-.29c1.21-.07,2.9-.21,3.36-.21s.71.32,1.31,0c.394372-.232998.801699-.443339,1.22-.63s-.05-.72-.26-.82-.36,0-.39-.25s0-.18-.14-.41l-.43-.53Z" opacity="0.2" fill="#fff"/><polygon points="283.77,189.43 292.82,194.84 300.6,189.18 283.77,189.43" fill="#ae93e1"/><polygon style="isolation:isolate" points="283.77,189.43 292.82,194.84 300.6,189.18 283.77,189.43" opacity="0.6" fill="#fff"/><polygon points="275.69,189.29 278.64,194.24 290.73,189.54 275.69,189.29" fill="#ae93e1"/><polygon style="isolation:isolate" points="275.69,189.29 278.64,194.24 290.73,189.54 275.69,189.29" opacity="0.6" fill="#fff"/><path d="M276.34,189.61c0,0-1.56,1.48-1.06,1.91s-.1,1.06-.1,1.06c.950679-.318631,1.979321-.318631,2.93,0c1.381938.421297,2.858062.421297,4.24,0c.92-.28,3-.36,3.68-.85.80902-.77881,1.542308-1.632638,2.19-2.55Z" fill="#ae93e1"/><path d="M290.48,189.18c0,0,2.52,2.62,4.32,2.82s2.05-.21,4.17,0s2.34.83,2.69.06c.180514-1.072457.180514-2.167543,0-3.24Z" fill="#ae93e1"/><path style="isolation:isolate" d="M276.34,189.61c0,0-1.56,1.48-1.06,1.91s-.1,1.06-.1,1.06c.950679-.318631,1.979321-.318631,2.93,0c1.381938.421297,2.858062.421297,4.24,0c.92-.28,3-.36,3.68-.85.80902-.77881,1.542308-1.632638,2.19-2.55Z" opacity="0.2"/><path style="isolation:isolate" d="M290.48,189.18c0,0,2.52,2.62,4.32,2.82s2.05-.21,4.17,0s2.34.83,2.69.06c.180514-1.072457.180514-2.167543,0-3.24Z" opacity="0.2"/><path d="M276.05,197c.579263-.214342,1.192359-.322734,1.81-.32.39.14,4.91.56,5.35.56.709503-.1433,1.440497-.1433,2.15,0c.88.28.77.5,2.05.25.737607-.205284,1.495438-.329354,2.26-.37.67,0,.81-.19,1.31,0c.707549.226861,1.447017.338288,2.19.33.81,0,.76.47,1.95.1.66574-.315163,1.38501-.501766,2.12-.55.67,0,1.52-.07,1.84,0s.12-.14.92,0c.414871.090783.847589.052396,1.24-.11.181935.167181.375779.320919.58.46.23.14-1.08.26-1.54.34s.14.07-1,.32-.81.43-1.69.4-.8.08-1.41,0-.4.31-1.53,0c-.796968-.224302-1.614368-.368351-2.44-.43-.18,0,.57-.1-.53.19s-.32.05-1.7.34-1.13.61-2,.26-1-.43-1.41-.32-.07.11-.67.14-.36,0-1,0c-.899369.155903-1.807978.252776-2.72.29-.67,0-1.59-.4-2.05-.4-.56207-.076227-1.119565-.183052-1.67-.32-.7-.1-1.2,0-1.41-.22s-1-.94-1-.94Z" fill="#ae93e1"/><path style="isolation:isolate" d="M276.05,197c.579263-.214342,1.192359-.322734,1.81-.32.39.14,4.91.56,5.35.56.709503-.1433,1.440497-.1433,2.15,0c.88.28.77.5,2.05.25.737607-.205284,1.495438-.329354,2.26-.37.67,0,.81-.19,1.31,0c.707549.226861,1.447017.338288,2.19.33.81,0,.76.47,1.95.1.66574-.315163,1.38501-.501766,2.12-.55.67,0,1.52-.07,1.84,0s.12-.14.92,0c.414871.090783.847589.052396,1.24-.11.181935.167181.375779.320919.58.46.23.14-1.08.26-1.54.34s.14.07-1,.32-.81.43-1.69.4-.8.08-1.41,0-.4.31-1.53,0c-.796968-.224302-1.614368-.368351-2.44-.43-.18,0,.57-.1-.53.19s-.32.05-1.7.34-1.13.61-2,.26-1-.43-1.41-.32-.07.11-.67.14-.36,0-1,0c-.899369.155903-1.807978.252776-2.72.29-.67,0-1.59-.4-2.05-.4-.56207-.076227-1.119565-.183052-1.67-.32-.7-.1-1.2,0-1.41-.22s-1-.94-1-.94Z" opacity="0.2"/><path d="M302.77,190.32c.38-.19.16-.84.16-1.27c0-4.9-6.32-8.87-14.11-8.87s-14.11,4-14.11,8.87c0,.43-.15,1,.16,1.27c1.06,1,7.39-.13,14-.22c6.04-.1,12.37.96,13.9.22Z" fill="#ae93e1"/><path style="isolation:isolate" d="M302.77,190.32c.38-.19.16-.84.16-1.27c0-4.9-6.32-8.87-14.11-8.87s-14.11,4-14.11,8.87c0,.43-.15,1,.16,1.27c1.06,1,7.39-.13,14-.22c6.04-.1,12.37.96,13.9.22Z" opacity="0.3" fill="#fff"/><path d="M288.84,181.83c0,0,.33.74,0,.74s0-.74,0-.74Z" fill="#ae93e1"/><path d="M292.93,181.83c0,0,1.41.21,1.2.37s-1.2-.37-1.2-.37Z" fill="#ae93e1"/><path d="M285.3,181.83c0,0-.83.53-1,.4s1-.4,1-.4Z" fill="#ae93e1"/><g opacity="0.5"><path d="M310.77,233.07l-1.65-2.22-1.65,2.22h-1.66l2.5-3.25-2.39-3.16h1.67l1.57,2.1l1.57-2.1h1.62l-2.4,3.13l2.51,3.28Z"/><path d="M316.13,224.67v8.4h-1.56v-7.07h-1.77v-1.31Z"/></g><path d="M376.18,229.56c.004046,2.706759-1.623352,5.149243-4.122911,6.187879s-5.378686.46874-7.294086-1.443798-2.489604-4.790809-1.454708-7.291918s3.474943-4.13216,6.181705-4.132163c3.690883-.000004,6.684483,2.989121,6.69,6.68Z" fill="#ae93e1"/><rect width="1" height="7.47" rx="0" ry="0" transform="translate(368.99 225.82)" fill="#fff"/><rect width="7.47" height="1" rx="0" ry="0" transform="translate(365.76 229.06)" fill="#fff"/><path d="M396.19,229.56c.004044,2.707668-1.624438,5.150784-4.125225,6.188833s-5.380699.466317-7.295312-1.448296-2.486345-4.794524-1.448296-7.295312s3.481165-4.129269,6.188833-4.125225c1.771646,0,3.47073.703784,4.723473,1.956527s1.956527,2.951827,1.956527,4.723473Z" fill="#ae93e1"/><rect width="7.47" height="1" rx="0" ry="0" transform="translate(385.77 229.06)" fill="#fff"/><path d="M289.17,217.89h-5.59c-3.199628,1.159827-5.356997,4.167429-5.43,7.57h16.44c-.068625-3.400959-2.222517-6.409254-5.42-7.57Z" fill="#ae93e1"/><path style="isolation:isolate" d="M289.17,217.89h-5.59c-3.199628,1.159827-5.356997,4.167429-5.43,7.57h16.44c-.068625-3.400959-2.222517-6.409254-5.42-7.57Z" opacity="0.6" fill="#fff"/><rect width="1.17" height="17.95" rx="0" ry="0" transform="matrix(.984134-.177428 0.177428 0.984134 284.127732 213.56409)" opacity="0.2"/><polygon points="293.35,243.74 294.84,225.62 277.9,225.62 279.4,243.74 293.35,243.74" fill="#ae93e1"/><polygon points="295.61,226.83 277.14,226.83 277.45,224.17 295.3,224.17 295.61,226.83" fill="#ae93e1"/><polygon style="isolation:isolate" points="295.61,226.83 277.14,226.83 277.45,224.17 295.3,224.17 295.61,226.83" opacity="0.4" fill="#fff"/><rect width="143.67" height="22.15" rx="0" ry="0" transform="translate(264.82 251.73)" fill="#ae93e1"/><path d="M316.77,260.85c0,1.85-1.37,3-3.58,3h-1.89v2.42h-1.56v-8.39h3.45c2.21-.01,3.58,1.12,3.58,2.97Zm-1.57,0c0-1.05-.71-1.66-2.08-1.66h-1.82v3.33h1.82c1.37,0,2.08-.61,2.08-1.67Z" fill="#fff"/><path d="M323.49,262.51v3.75h-1.42v-.78c-.470934.616892-1.227634.946056-2,.87-1.46,0-2.39-.81-2.39-1.92s.72-1.91,2.67-1.91h1.65v-.1c0-.87-.53-1.39-1.6-1.39-.69969-.007341-1.382027.217761-1.94.64l-.59-1.09c.795222-.547176,1.745317-.824141,2.71-.79c1.84,0,2.91.87,2.91,2.72Zm-1.5,1.75v-.74h-1.55c-1,0-1.29.38-1.29.85s.45.89,1.22.89c.701561.050709,1.357336-.351607,1.63-1Z" fill="#fff"/><path d="M331.29,259.86l-3,6.92c-.276927,1.132137-1.304839,1.918677-2.47,1.89-.623474.013465-1.231994-.191733-1.72-.58l.6-1.11c.299484.285431.6963.446302,1.11.45.53,0,.84-.26,1.13-.89l.1-.25-2.79-6.43h1.56l2,4.74l2-4.74Z" fill="#fff"/><path d="M342.94,262.59v3.67h-1.5v-3.47c0-1.14-.53-1.7-1.44-1.7s-1.67.65-1.67,1.92v3.25h-1.5v-3.47c0-1.14-.52-1.7-1.44-1.7s-1.66.65-1.66,1.92v3.25h-1.5v-6.4h1.43v.81c.530472-.590477,1.296929-.913196,2.09-.88.858323-.06128,1.683325.343583,2.16,1.06.594902-.702969,1.47971-1.093759,2.4-1.06.744851-.059137,1.476207.223464,1.987762.768085s.747853,1.292222.642238,2.031915Z" fill="#fff"/><path d="M350.92,263.54h-5c.195105.966868,1.087853,1.631038,2.07,1.54.653113.024485,1.2858-.230044,1.74-.7l.8.92c-.656292.723111-1.605275,1.109325-2.58,1.05-.916351.079361-1.823418-.233275-2.496272-.860383s-1.048479-1.509954-1.033728-2.429617c-.025723-.881913.316106-1.734873.943759-2.354941s1.484706-.951502,2.366241-.915059c.881312-.035907,1.736418.304102,2.352441.935383s.935013,1.494447.877559,2.374617c-.02.12-.03.3-.04.44Zm-5-1h3.64c-.099369-.913565-.892023-1.592358-1.81-1.55-.93542-.059987-1.755416.619689-1.87,1.55Z" fill="#fff"/><path d="M358.7,262.59v3.67h-1.5v-3.47c0-1.14-.57-1.7-1.53-1.7-.507434-.028702-1.001094.17114-1.345666.544749s-.503908.88179-.434334,1.385251v3.24h-1.5v-6.4h1.42v.83c.565564-.614599,1.375972-.944629,2.21-.9.749133-.059832,1.485439.220512,2.005082.763422s.767486,1.290782.674918,2.036578Z" fill="#fff"/><path d="M364.46,265.92c-.421898.293155-.926437.443816-1.44.43-.594783.065037-1.187443-.139635-1.615338-.557849s-.646073-1.006036-.594662-1.602151v-3.08h-1.05v-1.2h1.05v-1.47h1.5v1.47h1.69v1.2h-1.72v3c0,.63.31,1,.89,1c.30117.009506.596862-.082018.84-.26Z" fill="#fff"/><rect width="143.67" height="41.11" rx="0" ry="0" transform="translate(264.82 276.9)" fill="#fff"/><g opacity="0.5"><path d="M337.74,297.61l1.37.76-.47.81-1.39-.81v1.54h-.91v-1.53l-1.38.8-.48-.81l1.38-.76-1.38-.76.52-.85l1.38.81v-1.53h.91v1.54l1.39-.82.47.82Z"/><path d="M343,297.61l1.37.76-.47.81-1.39-.81v1.54h-.91v-1.53l-1.38.8-.48-.81l1.38-.76-1.38-.76.48-.82l1.38.81v-1.53h.91v1.54l1.39-.82.47.82Z"/><path d="M348.21,297.61l1.36.76-.46.81-1.4-.81v1.54h-.92v-1.53l-1.38.8-.48-.81l1.38-.76-1.38-.76.48-.82l1.38.81v-1.53h.92v1.54l1.4-.82.46.82Z"/><path d="M353.44,297.61l1.36.76-.46.81-1.39-.81v1.54h-.91v-1.53l-1.38.8-.48-.81l1.38-.76-1.38-.76.48-.82l1.38.81v-1.53h.96v1.54l1.39-.82.46.82Z"/><path d="M361.74,297.61l1.37.76-.47.81-1.39-.81v1.54h-.91v-1.53l-1.38.8-.48-.81l1.38-.76-1.38-.76.52-.85l1.38.81v-1.53h.91v1.54l1.39-.82.47.82Z"/><path d="M367,297.61l1.37.76-.47.81-1.39-.81v1.54h-.91v-1.53l-1.38.8-.48-.81l1.38-.76-1.38-.76.48-.82l1.38.81v-1.53h.91v1.54l1.39-.82.47.82Z"/><path d="M372.2,297.61l1.37.76-.47.81-1.39-.81v1.54h-.91v-1.53l-1.38.8-.48-.81l1.38-.76-1.38-.76.48-.82l1.38.81v-1.53h.91v1.54l1.39-.82.47.82Z"/><path d="M377.44,297.61l1.36.76-.46.81-1.4-.81v1.54h-.91v-1.53l-1.38.8-.48-.81l1.38-.76-1.38-.76.48-.82l1.38.81v-1.53h.97v1.54l1.4-.82.46.82Z"/><path d="M385.74,297.61l1.37.76-.47.81-1.39-.81v1.54h-.91v-1.53l-1.38.8-.48-.81l1.38-.76-1.38-.76.52-.85l1.38.81v-1.53h.91v1.54l1.39-.82.47.82Z"/><path d="M391,297.61l1.37.76-.47.81-1.39-.81v1.54h-.91v-1.53l-1.38.8-.48-.81l1.38-.76-1.38-.76.48-.82l1.38.81v-1.53h.91v1.54l1.39-.82.47.82Z"/><path d="M396.2,297.61l1.37.76-.47.81-1.39-.81v1.54h-.91v-1.53l-1.38.8-.47-.81l1.37-.76-1.37-.76.47-.82l1.38.81v-1.53h.91v1.54l1.39-.82.47.82Z"/></g><rect width="25.84" height="17.13" rx="2.73" ry="2.73" transform="translate(275.56 289.13)" fill="#ae93e1"/><g opacity="0.5"><rect width="25.84" height="4.27" rx="0" ry="0" transform="translate(275.56 298.36)"/></g><g opacity="0.5"><path d="M299.32,295.31c-.011137.705792-.587476,1.271566-1.293354,1.269643s-1.279126-.570829-1.286417-1.276671.554084-1.286468,1.259771-1.302972c.351623-.011094.692313.123021.942015.370832s.386405.587471.377985.939168Z"/></g><path d="M297.64,295.31c.004043.523554-.308764.997623-.791702,1.199851s-1.040207.092498-1.410427-.277722-.47995-.927489-.277722-1.410427.676297-.795745,1.199851-.791702c.706924,0,1.28.573076,1.28,1.28Z" fill="#fff"/><rect width="93.99" height="29.32" rx="14.66" ry="14.66" transform="translate(289.67 340.99)" fill="#ae93e1"/><path d="M307.59,354.75c-.11447-2.417528,1.254154-4.661278,3.456037-5.665896s4.793543-.567765,6.544437,1.103139s2.308373,4.239319,1.407741,6.485741-3.077978,3.718396-5.498215,3.717016c-1.543578.079776-3.051876-.479692-4.17005-1.546783s-1.747511-2.547598-1.73995-4.093217Zm9.76,0c.004044-1.563037-.934929-2.97423-2.378217-3.574248s-3.105965-.270409-4.211202.834829-1.434847,2.767915-.834829,4.211202s2.011211,2.382261,3.574248,2.378217c1.031057.03374,2.030046-.361038,2.759504-1.090496s1.124236-1.728447,1.090496-2.759504Z" fill="#fff"/><path d="M328.74,360.23L326.5,357h-2.9v3.2h-2v-11h4.52c2.88,0,4.67,1.47,4.67,3.9.065806,1.54244-.883955,2.946789-2.34,3.46l2.52,3.61ZM326,351h-2.4v4.38h2.4c1.79,0,2.71-.82,2.71-2.2s-.94-2.18-2.71-2.18Z" fill="#fff"/><path d="M333,349.26h4.8c3.56,0,6,2.19,6,5.49s-2.42,5.48-6,5.48h-4.8Zm4.7,9.25c2.45,0,4-1.49,4-3.76s-1.58-3.77-4-3.77h-2.66v7.53Z" fill="#fff"/><path d="M354.18,358.52v1.71h-8.18v-11h8v1.77h-6v2.85h5.3v1.68h-5.3v3Z" fill="#fff"/><path d="M363.62,360.23L361.38,357h-2.9v3.2h-2v-11h4.52c2.88,0,4.67,1.47,4.67,3.9.065806,1.54244-.883955,2.946789-2.34,3.46l2.53,3.61ZM360.87,351h-2.39v4.38h2.39c1.78,0,2.71-.82,2.71-2.2s-.93-2.18-2.71-2.18Z" fill="#fff"/><path d="M316.36,152.8h3.64c2.72,0,4.58,1.68,4.58,4.2s-1.86,4.2-4.58,4.2h-3.67Zm3.6,7.08c1.086221.090597,2.131016-.437659,2.701983-1.366143s.570967-2.099231,0-3.027714-1.615762-1.45674-2.701983-1.366143h-2v5.76Z" fill="#fff"/><path d="M332.12,158.47h-5c.199221.964252,1.089176,1.626345,2.07,1.54.65356.027068,1.287266-.227871,1.74-.7l.8.93c-.987329.997413-2.465342,1.328031-3.783533.846343s-2.234823-1.687348-2.346467-3.086343c-.025723-.881913.316106-1.734873.943759-2.354941s1.484706-.951502,2.366241-.915059c.881209-.032484,1.73524.30825,2.352073.938409s.939236,1.491278.887927,2.371591c0,.11-.02.29-.03.43Zm-5-1h3.63c-.147781-.887323-.915455-1.537717-1.815-1.537717s-1.667219.650394-1.815,1.537717Z" fill="#fff"/><path d="M337.44,160.85c-.419665.297764-.925777.448895-1.44.43-.594783.065037-1.187443-.139635-1.615338-.557849s-.646073-1.006036-.594662-1.602151v-3.12h-1.05v-1.2h1.05v-1.46h1.5v1.46h1.71v1.2h-1.72v3.05c-.050876.257875.02189.524698.196637.721043s.431327.299573.693363.278957c.302225.005853.597787-.089149.84-.27Z" fill="#fff"/><path d="M344,157.44v3.76h-1.42v-.78c-.475568.610036-1.23009.934481-2,.86-1.46,0-2.39-.8-2.39-1.92s.72-1.91,2.67-1.91h1.65v-.09c0-.88-.53-1.39-1.6-1.39-.697851-.005778-1.37869.215319-1.94.63l-.59-1.09c.795222-.547176,1.745317-.824141,2.71-.79c1.91,0,2.91.88,2.91,2.72Zm-1.5,1.75v-.74h-1.5c-1,0-1.29.38-1.29.85s.45.89,1.22.89c.694449.041902,1.339766-.358916,1.61-1Z" fill="#fff"/><path d="M345.76,152.84c.001558-.25604.110909-.499576.301225-.670861s.443987-.254467.698775-.229139c.249294-.031136.500136.044541.690616.208354s.302852.4005.309384.651646c-.124444.426667-.515556.72-.96.72s-.835556-.293333-.96-.72Zm.2,1.95h1.5v6.41h-1.46Z" fill="#fff"/><path d="M349.43,152.3h1.5v8.9h-1.5Z" fill="#fff"/><path d="M352.17,160.56l.57-1.14c.671688.411279,1.442435.63248,2.23.64.95,0,1.35-.27,1.35-.71c0-1.22-4-.07-4-2.63c0-1.21,1.09-2,2.82-2c.832955-.015839,1.657066.173019,2.4.55l-.58,1.14c-.557283-.326741-1.194122-.492873-1.84-.48-.91,0-1.34.3-1.34.72c0,1.3,4,.15,4,2.65c0,1.2-1.1,2-2.9,2-.955489.017382-1.895947-.239422-2.71-.74Z" fill="#fff"/><rect style="isolation:isolate" width="1.93" height="2.58" rx="0" ry="0" transform="matrix(-1 0 0-1 278.41 134.54)" opacity="0.6" fill="#fff"/><rect style="isolation:isolate" width="1.93" height="3.44" rx="0" ry="0" transform="matrix(-1 0 0-1 275.26 134.53)" opacity="0.6" fill="#fff"/><rect style="isolation:isolate" width="1.93" height="4.29" rx="0" ry="0" transform="matrix(-1 0 0-1 272.11 134.53)" opacity="0.6" fill="#fff"/><rect style="isolation:isolate" width="1.93" height="5.15" rx="0" ry="0" transform="matrix(-1 0 0-1 268.97 134.53)" opacity="0.6" fill="#fff"/><rect style="isolation:isolate" width="1.15" height="2.58" rx="0" ry="0" transform="translate(396.82 131.02)" opacity="0.6" fill="#fff"/><rect style="isolation:isolate" width="9.12" height="4.46" rx="0" ry="0" transform="matrix(-1 0 0-1 407.87 134.54)" opacity="0.6" fill="#fff"/></g><g transform="translate(-43-56)"><polygon points="249.63,317.18 248.72,324.36 231.91,324.33 232.81,317.15 249.63,317.18" fill="#b55b52"/><path d="M248.43,325.6v0c.25,1.16.55,3.23-.14,4-.196962.246427-.506452.374752-.82.34-.190748-.000664-.366426-.103779-.46-.27-.51-.87.94-3.81,1.1-4.14.031261-.068702.106282-.106213.18-.09.039815.002566.076968.020888.103241.050914s.039501.069282.036759.109086Zm-1.14,3.89v.06c.036913.064032.106132.102487.18.1.208036.019323.412679-.062534.55-.22.38-.45.44-1.64.15-3.23-.5,1.15-1.08,2.74-.88,3.29Z" fill="#ae93e1"/><path d="M248.43,325.6c.019566.037607.019566.082393,0,.12-.38.88-1.92,2.65-2.73,2.53-.2,0-.43-.16-.49-.63-.039076-.34151.061949-.684275.28-.95.776421-.67618,1.745059-1.09231,2.77-1.19.0584-.002404.114331.023697.15.07s.02.03.02.05Zm-2.84,2.16c0,.14.13.15.16.15.49.07,1.7-1.13,2.22-2-.822416.096545-1.5946.445949-2.21,1-.165849.193132-.24215.447468-.21.7.008439.051179.021835.101415.04.15Z" fill="#ae93e1"/><path d="M247.43,324.9l-.09-7.9c-.007585-.294447.19304-.553588.48-.62l6.39-1.57c.310362-.094378.647221-.032344.903603.166402s.400429.509507.386397.833598c0,2.85-.13,7-.09,10.55.05,4.19-.19,6.85-.14,11.76c0,3-2.94,3.86-3.23,2.62-1.3-5.63-1-9.3-4-14.12-.355825-.507265-.566711-1.101894-.61-1.72Z" fill="#263238"/><path d="M247.43,324.9l-.09-7.9c-.007585-.294447.19304-.553588.48-.62l6.39-1.57c.310362-.094378.647221-.032344.903603.166402s.400429.509507.386397.833598c0,2.85-.13,7-.09,10.55.05,4.19-.19,6.85-.14,11.76c0,3-2.94,3.86-3.23,2.62-1.3-5.63-1-9.3-4-14.12-.355825-.507265-.566711-1.101894-.61-1.72Z" opacity="0.5" fill="#fff"/><polygon points="231.91,324.33 240.58,324.34 241.49,317.16 232.82,317.15 231.91,324.33" opacity="0.2"/><polygon points="238.78,328.38 240.4,313.86 235.73,313.38 233.71,329.31 238.78,328.38" fill="#263238"/><path d="M221.69,205.79c-2.45,4.21-5,8.26-7.7,12.3-2.739088,4.140161-5.717486,8.116923-8.92,11.91-.44.5-.9,1-1.42,1.53-.595653.604321-1.230352,1.168869-1.9,1.69-.24.18-.45.33-.77.53l-.23.14-.3.16-.3.15c-.142599.069498-.289578.129625-.44.18-1.25052.474871-2.61933.541386-3.91.19-.908517-.25764-1.755511-.696444-2.49-1.29-.480635-.379218-.919751-.808278-1.31-1.28-.990678-1.269333-1.801645-2.669176-2.41-4.16-.517046-1.224838-.9677-2.476653-1.35-3.75-1.415449-4.765594-2.356685-9.659355-2.81-14.61l5.27-1.25c1.79,4.31,3.59,8.73,5.54,12.73.49,1,1,1.94,1.52,2.8.369374.690571.841415,1.321084,1.4,1.87.06,0,.11.05,0-.06-.264525-.220358-.575708-.377659-.91-.46-.714326-.197322-1.472143-.169384-2.17.08l-.22.1-.11.05h-.1v0c-.07,0,0,0,0,0s.4-.42.68-.77.62-.75.93-1.17c1.29-1.68,2.59-3.58,3.85-5.51s2.54-3.89,3.77-5.87l7.46-11.95Z" fill="#b65b52"/><path d="M225.5,201c2.05,6.61-11.35,24.76-11.35,24.76l-14-8.8c2.505957-5.753415,5.627481-11.218596,9.31-16.3c5.54-7.24,13.78-6.9,16.04.34Z" fill="#ae93e1"/><path d="M225.5,201c2.05,6.61-11.35,24.76-11.35,24.76l-14-8.8c2.505957-5.753415,5.627481-11.218596,9.31-16.3c5.54-7.24,13.78-6.9,16.04.34Z" opacity="0.7" fill="#fff"/><path d="M216.68,210.16c-3.5,1.64-7.19,7.63-7.7,12.35l5.17,3.26c3.199285-4.397653,6.06719-9.027079,8.58-13.85-1.09-1.67-2.04-3.63-6.05-1.76Z" opacity="0.2"/><path d="M255.71,191.08c-1.595155,8.17375-2.558006,16.45828-2.88,24.78-.24,5.64-.22,10.95-.07,15.72.34,11.08,1.34,19.38,1.24,22.21l-38,.82c-8.83-36.67-1.62-58.11-1.62-58.11c2.872627-1.110251,5.80762-2.051853,8.79-2.82.63-.16,1.28-.31,1.95-.46c5.534007-1.005809,11.119088-1.706865,16.73-2.1c1.09-.08,2.2-.14,3.28-.18c5.55-.21,10.58.14,10.58.14Z" fill="#ae93e1"/><path d="M252.76,231.58c.35,11.08,1.34,19.38,1.24,22.21l-38,.82c-8.83-36.67-1.62-58.11-1.62-58.11c2.872627-1.110251,5.80762-2.051853,8.79-2.82.63-.16,1.28-.31,1.95-.46c5.534102-1.005193,11.119148-1.706245,16.73-2.1c1.09-.08,2.2-.14,3.28-.18c5.57-.21,10.6.14,10.6.14-1.2646,6.388891-2.119676,12.852058-2.56,19.35-.14,1.84-.24,3.65-.32,5.43-.12,2.66-.17,5.26-.18,7.75-.03,2.79.02,5.45.09,7.97Z" opacity="0.7" fill="#fff"/><path d="M232.29,174.76c.32,5.36,1.73,15,6.2,17.5-2.343236,4.109659-6.358221,6.996798-11,7.91-4.44,1-5.45-2-4.91-4c5.37-2.78,4.13-7,2.11-10.7Z" fill="#b55b52"/><path d="M229.18,179.15l-4.53,6.36c.490192.856389.898661,1.75703,1.22,2.69c2.11-.85,4.49-4,4.14-6.32-.110834-.952386-.391971-1.877091-.83-2.73Z" opacity="0.2"/><path d="M209.8,165.3c-.36,2.89,1.13,8.42,4.62,5.89s-4-10.86-4.62-5.89Z" fill="#263238"/><path d="M230.17,165.39c1.71,7,3.06,10.94.69,15.48-3.57,6.83-13,6.25-16.76-.07-3.38-5.69-5.6-16.1.26-20.83c2.640528-2.132799,6.191728-2.75915,9.40258-1.658402s5.630829,3.774143,6.40742,7.078402Z" fill="#b55b52"/><path d="M233.17,157.49h-8v4.58c.14-.1.31-.19.45-.28s.81,6.64,4.71,8.74c5.02-4.16,6.23-10.66,2.84-13.04Z" fill="#263238"/><path d="M234.58,170.26c-.011706,1.788566-.730722,3.499825-2,4.76-1.72,1.64-3.72.37-4.2-1.84-.42-2-.05-5.24,2.14-6c.966745-.32092,2.029545-.144778,2.84107.470862s1.267508,1.591678,1.21893,2.609138Z" fill="#b55b52"/><path d="M220.37,170.42c.17.56,0,1.1-.35,1.21s-.8-.25-1-.81s0-1.09.35-1.2.83.25,1,.8Z" fill="#263238"/><path d="M214.06,172.32c.17.56,0,1.1-.35,1.21s-.8-.26-1-.81s0-1.1.35-1.21.83.26,1,.81Z" fill="#263238"/><path d="M216.15,172c-.17531,1.850463-.606069,3.667729-1.28,5.4.937283.287412,1.952754.160023,2.79-.35Z" fill="#a02724"/><path d="M221.31,178.27c-.230557.105312-.467725.195503-.71.27-.043769.012222-.09061.006412-.130066-.016135s-.068243-.059951-.079934-.103865c-.015559-.042388-.012483-.089376.008468-.129374s.057828-.069281.101532-.080626c1.416028-.387827,2.558704-1.433729,3.07-2.81.011345-.043704.040628-.080581.080626-.101532s.086986-.024027.129374-.008468c.043914.011691.081319.040478.103865.079934s.028357.086297.016135.130066c-.438142,1.244801-1.377398,2.249333-2.59,2.77Z" fill="#263238"/><path d="M221.68,167.81c-.105721.058745-.234279.058745-.34,0-.691818-.537275-1.600045-.708498-2.44-.46-.17927.062395-.376185-.025123-.45-.2-.032318-.084838-.029364-.179078.008203-.261726s.106628-.146839.191797-.178274c1.058389-.326299,2.209206-.121461,3.09.55.150441.108595.186042.317748.08.47-.038491.038943-.086907.066609-.14.08Z" fill="#263238"/><path d="M210.67,171c-.065783.015352-.134217.015352-.2,0-.183072-.035292-.308908-.204518-.29-.39.145805-1.088283.814154-2.036667,1.79-2.54.082212-.037171.175827-.04014.26023-.008255s.15267.096011.18977.178255c.040071.081814.044538.176553.012343.261774s-.098187.153342-.182343.188226c-.765057.396359-1.285199,1.144764-1.39,2c.007225.132772-.068411.256178-.19.31Z" fill="#263238"/><path d="M228.19,163.39c-.144414.135203-.301847.25579-.47.36-.907132.607938-2.063303.706175-3.06.26-2-.88-2.9-6.47-8.4-3.35-1.254729-.224743-2.526032.297817-3.26,1.34-1.37,1.84-.07,8.27-3.21,7.51s-2.63-1.73-2.63-1.73.89.51,1.38.05c-.969274-.74844-1.368564-2.022175-1-3.19s.79.86,1.29.66c-.640232-2.595439-.469211-5.324782.49-7.82c1.59-4.54,12.6-4.05,12.6-4.05s1.28-2.37,6.31-1s7.56,7.25,6.9,9.89" fill="#263238"/><path d="M242.71,329.58c-9.48,1.91-17.6,3.26-24.52,4.11-31.7,3.88-38.36-2.84-35.76-15.48c3.6-17.55,32.75-53.8,32.75-53.8v-14.41h6.57l10.15-.76.22,21.09.22,20.4c0,0-7.7,6.82-14.48,13.46-5.87,5.75-11.05,11.35-10,12.27.79.66,4.71.76,9.58.61c9.71-.3,23.2-1.63,23.2-1.63Z" fill="#ae93e1"/><path d="M232.34,290.73c0,0-7.7,6.82-14.48,13.46C218,290.12,228.64,267,228.64,267l3.48,3.33Z" opacity="0.2"/><path d="M242.71,329.58c-9.48,1.91-17.6,3.26-24.52,4.11-1.079119-5.471934-1.315181-11.076705-.7-16.62c9.71-.3,23.2-1.63,23.2-1.63Z" opacity="0.2"/><path d="M253.58,286.25c-1.83,16.93-19.81,110.6-19.81,110.6h-13.17l5.48-113.33L221.75,250l32.59-2.44c0,0,.23,3.17.35,8.24c0,1.46.06,3.07.07,4.82.086748,8.558686-.307206,17.115491-1.18,25.63Z" fill="#ae93e1"/><polygon points="221.44,411.23 228.66,411.23 230.71,394.51 223.49,394.51 221.44,411.23" fill="#b55b52"/><polygon points="223.49,394.51 230.71,394.51 229.65,403.13 222.43,403.13 223.49,394.51" opacity="0.2"/><polygon points="234.72,398.95 219.15,398.95 219.2,394.3 235.46,393.36 234.72,398.95" fill="#263238"/><path d="M218.58,411.65c-.493561.037256-.985634-.089278-1.4-.36-.261221-.226474-.395582-.566109-.36-.91.001708-.200967.112896-.385001.29-.48.79-.41,3.14,1,3.4,1.18.060043.038792.091441.109438.08.18-.013157.064249-.058519.117171-.12.14-.618741.153366-1.252663.237218-1.89.25Zm-1.09-1.49c-.072344-.017032-.147656-.017032-.22,0-.071088.040944-.11349.118039-.11.2-.02768.233668.062205.465871.24.62.807589.374181,1.728775.420778,2.57.13-.758473-.472017-1.600287-.794486-2.48-.95Z" fill="#ae93e1"/><path d="M220.42,411.4h-.08c-.75-.41-2.21-2-2.06-2.79.044371-.262658.273647-.453721.54-.45.262838-.025946.525267.053142.73.22.84.68,1,2.77,1,2.86.008864.059514-.018693.118565-.07.15-.019236.006913-.039561.010301-.06.01Zm-1.48-2.93h-.08c-.22,0-.24.13-.25.17-.08.48.85,1.67,1.6,2.23-.064713-.823478-.370811-1.609592-.88-2.26-.109249-.0915-.247499-.141128-.39-.14Z" fill="#ae93e1"/><path d="M221,410.39h8.81c.296536.005696.551611.211401.62.5l1.49,6.41c.070385.316496-.00795.647799-.212626.899258s-.51318.395415-.837374.390742c-2.83,0-4.9-.22-8.47-.22-2.19,0-8.81.23-11.84.23s-3.45-3-2.22-3.27c5.56-1.21,9.73-2.89,11.5-4.49.31591-.291195.730361-.451973,1.16-.45Z" fill="#263238"/><path d="M221,410.39h8.81c.296536.005696.551611.211401.62.5l1.49,6.41c.070385.316496-.00795.647799-.212626.899258s-.51318.395415-.837374.390742c-2.83,0-4.9-.22-8.47-.22-2.19,0-8.81.23-11.84.23s-3.45-3-2.22-3.27c5.56-1.21,9.73-2.89,11.5-4.49.31591-.291195.730361-.451973,1.16-.45Z" opacity="0.5" fill="#fff"/><path d="M227.34,200.2c0,0,2.2,1.72,4.68,3.35c2.53-2.24,8.35-8,7.17-11.76-.58711-.697905-1.395086-1.174223-2.29-1.35-2.640432,3.746802-5.868663,7.042568-9.56,9.76Z" fill="#fff"/><path d="M227.34,200.2c-1.161273,1.568434-2.097038,3.291857-2.78,5.12-2.44-1-2.95-8.37-2.35-9.34.679645-.805966,1.596661-1.376475,2.62-1.63s-1.03,5.82,2.51,5.85Z" fill="#fff"/><path d="M254.76,260.62c-1.037553.668851-2.16116,1.193649-3.34,1.56l-3.83-8.55c2.533402-.023282,5.012479.734408,7.1,2.17.04,1.46.06,3.07.07,4.82Z" opacity="0.2"/><path d="M253.15,210.43c-.14,1.84-.24,3.65-.32,5.43-.12,2.66-.17,5.26-.18,7.75-3.47-4.6-2.46-13.84-2.46-13.84c1.029978-.074187,2.059103.15528,2.96.66Z" opacity="0.2"/><path d="M260.34,196.45c2.554489,4.919676,4.802117,9.992703,6.73,15.19.990625,2.664842,1.845063,5.378348,2.56,8.13.35,1.42.67,2.87.91,4.41.2735,1.685307.367359,3.394882.28,5.1-.033233.516109-.093314,1.030138-.18,1.54-.06.29-.1.55-.18.85l-.12.44-.11.3c-.28.79-.56,1.62-.87,2.28-.61,1.41-1.27,2.66-1.94,3.92-1.32,2.49-2.77,4.82-4.23,7.12-2.930633,4.580359-6.091348,9.009365-9.47,13.27l-4.6-2.88l6.75-14.4c1.12-2.38,2.18-4.77,3.16-7.11.48-1.16.93-2.34,1.28-3.42.22-.57.31-1,.45-1.5l.05-.18v-.64c-.051622-.966899-.188826-1.927322-.41-2.87-.23-1.09-.55-2.23-.91-3.39-.74-2.32-1.62-4.69-2.58-7.06-1.91-4.71-4.11-9.53-6.32-14.09Z" fill="#b65b52"/><path d="M257.82,191.57C264.19,194.29,270.3,214,270.3,214l-16.75,5.75c-2.533142-5.538384-4.558124-11.295356-6.05-17.2-2.24-9.48,2.6-14.27,10.32-10.98Z" fill="#ae93e1"/><path d="M257.82,191.57C264.19,194.29,270.3,214,270.3,214l-16.75,5.75c-2.533142-5.538384-4.558124-11.295356-6.05-17.2-2.24-9.48,2.6-14.27,10.32-10.98Z" opacity="0.7" fill="#fff"/><path d="M246.82,253.13c0,0,7,4.46,8.68,7.08c0,0-1.13,11.82-5.87,11s-6.41-8.78-2.81-18.08Z" fill="#ae93e1"/><path d="M234.58,211.4l9.12-1.26v10.86c0,0-4.94,2.84-8.6.86Z" fill="#fff"/><path d="M199.27,207.72c.064278.189961.042731.398488-.059032.571292s-.27367.292786-.470968.328708l-7.59,1.51c-.431013.065068-.848529-.181267-1-.59l-4.67-14.65c-.068911-.200153-.053512-.419718.042661-.608293s.264861-.329963.467339-.391707l7.59-1.51c.450861-.022062.860605.260662,1,.69Z" fill="#263238"/><path d="M193.73,193.14l4.73,14.79c.082184.16839.077955.36611-.011352.530833s-.252691.276154-.438648.299167L191.57,210c-.43.09-1.27,0-1.4-.41l-4.74-14.83c-.13-.42.53-.91,1-1l6.43-1.29c.42169-.042373.803254.251475.87.67Z" opacity="0.3" fill="#fff"/><path d="M185.74,212.73l-.41-7.35l7.55,3.1c0,0,0,6.58-3.41,6.42Z" fill="#b55b52"/><polygon points="188.76,198.95 194.35,203.82 192.88,208.48 185.33,205.38 188.76,198.95" fill="#b55b52"/></g></g></svg>
