<svg id="eucfCLvsTMD1" xmlns="http://www.w3.org/2000/svg" xmlns:xlink="http://www.w3.org/1999/xlink" viewBox="0 0 455 225" shape-rendering="geometricPrecision" text-rendering="geometricPrecision"><path d="M0,173.830812h400.557084c-15.592929-4.753177-44.829488-10.316369-55.503242-10.316369l-46.628807-3.094911c-10.721291-1.101874-29.954806-2.834509-45.392022-11.348005-7.317719-4.000192-25.533013-12.379643-36.623109-12.379643-13.353474.755572-17.733198.930447-36.10729,8.253095-.496422.19784-17.537827,5.158185-36.107291,9.800551-11.46776,3.508312-36.430906,8.223879-51.581843,8.768913-16.785479,1.235196-43.521749,2.983353-56.224209,2.579092C25.648463,164.486288,8.441049,166.77416,0,169.188446v4.642366Z" transform="matrix(1.02862 0 0 0.990702 0.268028 53.44362)" fill="#483666" stroke="#483666" stroke-width="0.91"/></svg>
