<svg id="e2fQsIYHop01" xmlns="http://www.w3.org/2000/svg" xmlns:xlink="http://www.w3.org/1999/xlink" viewBox="0 0 455 225" shape-rendering="geometricPrecision" text-rendering="geometricPrecision"><path d="M0,142.433799v31.722331l455-.489048v-25.430435c-.183847-.918506-30.539553-6.868562-51.568566-1.467142-8.754247,1.008426-22.787964,4.62162-28.705121,6.357608-5.912623.840722-13.454896,3.796117-18.322417,5.868561-4.868502,2.281332-18.370875,4.364411-26.217591,6.357608h-38.634699l-45.970401-.489046-35.211371,1.46714-28.639654-7.335702-20.154659-5.868561c-16.138651-3.423324-22.117476-6.357608-35.321741-6.357608-17.605685,0-25.919481,1.467142-44.014214,2.445232h-18.583779c-10.269983,0-16.627592-1.956187-24.452341-2.445232L18.66348,142.835227C13.540239,141.92736,4.208499,140.977789,0,142.433799Z" transform="matrix(1 0 0 1.408951 0-18.921435)" fill="#4f388d" stroke="#4f388d" stroke-width="0.91"/></svg>
