<svg id="e40ausOtrLG1" xmlns="http://www.w3.org/2000/svg" xmlns:xlink="http://www.w3.org/1999/xlink" viewBox="0 0 455 225" shape-rendering="geometricPrecision" text-rendering="geometricPrecision"><path d="M0,126.375516v46.423659l455,1.031636v-41.781294c-7.662318-1.987507-23.099813-3.455101-32.262723-1.547457-12.10486.580005-43.328749,9.284731-53.645117,9.284731-10.257444.64078-33.442879,4.151424-41.265475,6.70564L299.97249,153.19807c-7.490323,1.022026-22.706967,1.770412-30.433288,1.547456L227.5,150.618978l-25.533012-4.126547-17.537827-6.70564-25.790921-6.70564c-8.573102-1.978932-27.142566-3.018053-37.138928-2.579092-12.13154-.052223-24.759284,0-38.170564,1.547456-14.069749,2.173448-29.979101-1.306469-40.749656-3.610729C29.440658,125.1297,8.966131,124.750081,0,126.375516Z" transform="matrix(1 0 0 0.990314 0 52.453903)" fill="#17151c" stroke="#17151c" stroke-width="0.91"/></svg>
