<svg id="eF476MzqAHB1" xmlns="http://www.w3.org/2000/svg" xmlns:xlink="http://www.w3.org/1999/xlink" viewBox="0 0 1000 300" shape-rendering="geometricPrecision" text-rendering="geometricPrecision"><path d="M0,254.199687l1000-1.034138v-115.823393c16.239255,7.57722-9.463357-20.662025-65.002762,4.136553l-37.228947,28.955844c-64.827495,71.469013-98.179391-20.434556-164.427849-28.955844-75.580935-4.136553-112.471308,35.160669-130.051644,49.638592-68.253069,41.365497-82.216365,21.312275-135.721671,4.13655-82.730993-33.092397-108.832745-64.023537-191.315421-4.13655-71.355481,40.331359-98.243054,15.512062-140.642688-14.477923C81.833873,140.972276,40.713149,127.503843,0,191.117301v63.082386Z" transform="translate(0 5.000003)" fill="#4f388d" stroke="#4f388d" stroke-width="2"/><path d="M0,300h1000l1.326599-41.834448-1001.3266,1.034138L0,300Z" transform="translate(.000001 0)" fill="#4f388d" stroke="#4f388d" stroke-width="2"/></svg>
